<?xml version="1.0" standalone="no"?>
<!DOCTYPE svg PUBLIC "-//W3C//DTD SVG 20010904//EN"
 "http://www.w3.org/TR/2001/REC-SVG-20010904/DTD/svg10.dtd">
<svg version="1.0" xmlns="http://www.w3.org/2000/svg"
 width="1024.000000pt" height="1024.000000pt" viewBox="0 0 1024.000000 1024.000000"
 preserveAspectRatio="xMidYMid meet">
<metadata>
Created by potrace 1.14, written by Peter Selinger 2001-2017
</metadata>
<g transform="translate(0.000000,1024.000000) scale(0.100000,-0.100000)"
fill="#000000" stroke="none">
<path d="M7185 5236 c0 -371 2 -425 15 -429 43 -11 45 -1 45 198 1 203 8 239
59 291 91 93 278 77 332 -28 24 -46 25 -58 25 -265 l1 -191 29 -4 c27 -4 29
-2 29 31 4 271 1 363 -14 414 -27 94 -96 146 -202 155 -93 7 -154 -12 -211
-64 -26 -24 -48 -44 -49 -44 -1 0 -1 75 0 168 1 92 0 173 -2 180 -2 6 -16 12
-31 12 l-26 0 0 -424z"/>
<path d="M2668 5612 l-148 -3 0 -24 c0 -23 4 -25 43 -25 319 -3 372 -6 419
-27 62 -28 83 -62 83 -134 0 -68 -21 -102 -81 -133 -35 -19 -59 -21 -239 -23
-110 -1 -206 -2 -212 -3 -7 0 -13 -11 -13 -25 l0 -25 203 -1 c238 -2 235 -2
290 -23 61 -23 86 -54 96 -114 12 -79 -26 -150 -93 -172 -50 -16 -90 -19 -299
-19 l-198 -1 3 -27 3 -27 215 2 c118 1 222 3 230 5 95 22 156 60 186 119 8 16
15 55 16 88 2 82 -36 144 -112 182 -30 15 -50 28 -43 28 21 0 85 63 99 97 28
65 8 174 -38 214 -69 60 -160 76 -410 71z"/>
<path d="M4898 5596 c-19 -35 4 -39 199 -41 142 -1 202 -5 244 -18 55 -16 127
-61 162 -101 35 -41 68 -125 74 -191 6 -65 -12 -185 -27 -185 -4 0 -11 -11
-14 -24 -10 -40 -85 -107 -155 -139 -65 -30 -70 -30 -246 -33 l-180 -3 0 175
0 175 -30 -3 -30 -3 0 -188 c0 -104 3 -193 6 -199 7 -11 318 -14 393 -4 137
19 252 103 310 225 26 57 31 78 32 159 2 66 -3 107 -15 141 -58 165 -205 265
-396 270 -296 8 -317 7 -327 -13z"/>
<path d="M6727 5414 c-1 -1 -18 -4 -38 -7 -69 -9 -157 -70 -160 -110 0 -7 -2
-21 -5 -32 -8 -39 17 -104 52 -130 18 -14 39 -25 47 -25 7 0 17 -3 21 -7 3 -4
12 -8 19 -9 102 -15 199 -43 228 -66 46 -37 27 -123 -33 -151 -66 -31 -219
-24 -263 13 -8 7 -15 10 -15 6 0 -4 -11 1 -25 10 -24 16 -27 16 -39 -2 -18
-24 -12 -36 31 -57 76 -38 219 -54 294 -32 76 21 128 73 133 131 10 109 -49
157 -229 187 -86 15 -141 42 -156 78 -26 63 24 132 104 144 61 9 139 -1 188
-24 37 -18 45 -19 57 -7 8 8 12 21 9 29 -5 12 -67 39 -112 49 -23 5 -105 14
-108 12z"/>
<path d="M3407 5403 c-3 -5 -4 -103 -3 -218 2 -196 3 -213 24 -257 41 -84 116
-123 233 -122 86 1 121 16 182 78 l39 39 -2 -44 c-3 -71 -2 -76 23 -75 12 1
24 4 27 8 3 3 5 138 5 300 l0 293 -28 1 c-15 1 -27 -4 -28 -10 0 -6 -2 -92 -3
-191 -3 -187 -10 -225 -51 -277 -66 -82 -228 -95 -303 -25 -51 47 -56 70 -58
257 -2 96 -3 192 -3 213 -1 32 -4 37 -25 37 -14 0 -27 -3 -29 -7z"/>
<path d="M4110 5405 c0 -2 121 -272 165 -370 8 -16 32 -70 54 -119 23 -49 41
-95 41 -104 0 -27 -62 -141 -86 -156 -38 -26 -92 -27 -141 -4 -43 20 -44 20
-57 2 -12 -16 -11 -21 7 -36 29 -26 95 -41 147 -34 74 10 135 74 182 191 9 22
35 81 58 130 23 50 49 106 57 125 9 19 28 62 43 95 15 33 34 76 43 95 8 19 29
65 46 103 36 78 37 87 14 87 -37 0 -35 2 -163 -285 -34 -77 -74 -165 -88 -195
l-25 -55 -18 40 c-20 45 -52 117 -54 125 -1 3 -15 34 -32 70 -17 36 -40 88
-52 115 -80 179 -82 184 -112 183 -16 -1 -29 -2 -29 -3z"/>
<path d="M5976 5399 c-51 -12 -136 -59 -136 -74 0 -7 7 -18 15 -25 11 -9 20
-8 42 8 74 53 226 66 282 25 40 -30 63 -78 66 -137 l3 -54 -107 2 c-90 1 -150
-4 -219 -18 -32 -6 -81 -57 -94 -98 -17 -51 -16 -71 5 -119 31 -74 112 -110
227 -103 70 5 110 22 158 67 l32 31 0 -50 c0 -46 2 -51 23 -50 12 1 24 7 27
14 12 29 3 417 -10 459 -17 57 -60 101 -116 120 -38 13 -148 14 -198 2z m269
-359 c1 -30 -5 -67 -13 -82 -18 -36 -79 -86 -119 -97 -40 -11 -129 -7 -163 7
-59 23 -88 94 -63 152 26 63 69 77 243 76 l115 -1 0 -55z"/>
</g>
</svg>
