<svg xmlns="http://www.w3.org/2000/svg" height="768" width="1024" style="background-color: rgb(64, 64, 64)">
  <g style="font-style:normal;font-weight:300;font-size:72px;line-height:1;font-family:MontserratLightAlt1;font-variant-ligatures:none;text-align:center;text-anchor:middle" aria-label="BuyDash">
    <path style="font-style:normal;font-weight:300;font-size:72px;line-height:1;font-family:MontserratLightAlt1;font-variant-ligatures:none;text-align:center;text-anchor:middle;fill:#fff" d="M396.522 98.256c-1.872-2.16-4.608-3.528-8.208-4.248 2.52-.792 4.608-2.232 6.12-4.248 1.512-1.944 2.304-4.32 2.304-7.272 0-4.104-1.584-7.272-4.608-9.504-3.024-2.232-7.272-3.384-12.744-3.384h-21.024v3.168h20.88c4.392 0 7.776.864 10.152 2.592 2.376 1.728 3.6 4.176 3.6 7.416 0 3.312-1.224 5.832-3.6 7.56-2.376 1.728-5.76 2.52-10.152 2.52h-20.88v3.168h22.464c4.824 0 8.568.864 11.088 2.52 2.52 1.728 3.816 4.32 3.816 7.848 0 3.6-1.296 6.192-3.816 7.92-2.52 1.728-6.192 2.52-11.088 2.52h-22.464V120h22.464c6.12 0 10.728-1.152 13.896-3.456 3.096-2.304 4.68-5.544 4.68-9.864 0-3.384-1.008-6.192-2.88-8.424z" transform="matrix(1.59119 0 0 1.59119 -318.221 224.22)"/>
    <path style="font-style:normal;font-weight:300;font-size:72px;line-height:1;font-family:MontserratLightAlt1;font-variant-ligatures:none;text-align:center;text-anchor:middle;fill:#fff" d="M444.255 82.416h-3.6v20.016c0 4.464-1.296 8.064-3.744 10.656-2.448 2.664-5.832 3.96-10.008 3.96-3.96 0-6.984-1.08-9.144-3.312-2.16-2.16-3.24-5.4-3.24-9.648V82.416h-3.6v21.96c0 5.184 1.368 9.072 4.176 11.808 2.736 2.736 6.624 4.104 11.52 4.104 3.312 0 6.192-.72 8.64-2.16 2.448-1.44 4.248-3.528 5.544-6.192V120h3.456z" transform="matrix(1.59119 0 0 1.59119 -313.447 224.22)"/>
    <path style="font-style:normal;font-weight:300;font-size:72px;line-height:1;font-family:MontserratLightAlt1;font-variant-ligatures:none;text-align:center;text-anchor:middle;fill:#fff" d="M489.753 82.416h-3.672l-15.048 33.624-15.048-33.624h-3.816l16.92 37.44-2.016 4.536c-1.152 2.448-2.304 4.176-3.6 5.184-1.296 1.008-2.88 1.512-4.68 1.512-2.736 0-5.112-.936-6.984-2.952l-1.8 2.736c1.008 1.152 2.304 1.944 3.816 2.52 1.512.576 3.168.864 4.896.864 2.592 0 4.824-.648 6.696-2.088 1.872-1.368 3.6-3.744 5.04-7.056z" transform="matrix(1.59119 0 0 1.59119 -308.674 224.22)"/>
    <path style="font-style:normal;font-weight:300;font-size:72px;line-height:1;font-family:MontserratLightAlt1;font-variant-ligatures:none;text-align:center;text-anchor:middle;fill:#fff" d="M542.05 81.84c-2.304-3.816-5.472-6.768-9.504-9-4.032-2.16-8.712-3.24-13.896-3.24h-19.944v3.312h19.656c4.608 0 8.712.936 12.312 2.808 3.528 1.872 6.264 4.464 8.208 7.704 1.872 3.312 2.88 7.128 2.88 11.376 0 4.32-1.008 8.064-2.88 11.376-1.944 3.312-4.68 5.904-8.208 7.776-3.6 1.872-7.704 2.736-12.312 2.736h-15.984V94.8h-3.672V120h19.944c5.184 0 9.864-1.08 13.896-3.24s7.2-5.112 9.504-8.928c2.232-3.816 3.384-8.136 3.384-13.032 0-4.824-1.152-9.144-3.384-12.96z" transform="matrix(1.59119 0 0 1.59119 -303.9 224.22)"/>
    <path style="font-style:normal;font-weight:300;font-size:72px;line-height:1;font-family:MontserratLightAlt1;font-variant-ligatures:none;text-align:center;text-anchor:middle;fill:#fff" d="M580.438 85.728c-2.52-2.376-6.12-3.6-10.728-3.6-2.88 0-5.688.504-8.28 1.44-2.664.936-4.896 2.232-6.768 3.888l1.8 2.592c1.584-1.44 3.456-2.592 5.76-3.456a20.242 20.242 0 0 1 7.2-1.296c3.6 0 6.408.936 8.28 2.736 1.872 1.872 2.88 4.536 2.88 7.992v3.024h-12.888c-4.896 0-8.496 1.008-10.728 2.952-2.232 1.944-3.312 4.464-3.312 7.56 0 3.24 1.152 5.832 3.6 7.776 2.448 2.016 5.76 2.952 9.936 2.952 3.168 0 5.976-.576 8.28-1.8 2.304-1.224 4.032-2.952 5.256-5.184V120h3.456V96.168c0-4.608-1.296-8.064-3.744-10.44zm-4.824 29.448c-2.16 1.44-4.824 2.16-7.92 2.16-3.312 0-5.904-.648-7.704-2.088-1.872-1.44-2.736-3.384-2.736-5.832 0-2.304.792-4.176 2.448-5.544 1.656-1.296 4.32-2.016 8.064-2.016h12.816v7.056c-1.152 2.736-2.808 4.824-4.968 6.264z" transform="matrix(1.59119 0 0 1.59119 -299.127 224.22)"/>
    <path style="font-style:normal;font-weight:300;font-size:72px;line-height:1;font-family:MontserratLightAlt1;font-variant-ligatures:none;text-align:center;text-anchor:middle;fill:#fff" d="M599.95 118.92c2.735.936 5.615 1.368 8.64 1.368 4.68 0 8.351-.936 10.943-2.808 2.592-1.872 3.888-4.32 3.888-7.488 0-2.304-.648-4.176-1.872-5.544-1.296-1.296-2.808-2.304-4.608-2.88-1.8-.576-4.176-1.152-7.056-1.728-2.664-.504-4.752-1.008-6.192-1.44a9.245 9.245 0 0 1-3.672-2.088c-1.008-.936-1.512-2.232-1.512-3.96 0-2.088.864-3.816 2.664-5.112 1.728-1.296 4.392-1.944 7.92-1.944 2.016 0 4.032.288 6.048.864 1.944.576 3.672 1.44 5.256 2.52l1.656-2.88c-1.512-1.08-3.456-1.944-5.76-2.664-2.376-.648-4.752-1.008-7.128-1.008-4.608 0-8.136 1.008-10.584 2.952-2.448 1.944-3.672 4.392-3.672 7.344 0 2.448.648 4.392 1.944 5.76 1.296 1.44 2.808 2.448 4.68 3.024 1.8.648 4.176 1.224 7.2 1.728 2.52.504 4.536.936 5.976 1.368 1.44.432 2.592 1.152 3.6 2.016 1.008.936 1.512 2.16 1.512 3.744 0 2.232-.936 3.96-2.736 5.184-1.8 1.296-4.608 1.872-8.352 1.872-2.664 0-5.184-.432-7.632-1.296-2.448-.864-4.392-1.944-5.904-3.24l-1.656 2.88c1.512 1.44 3.672 2.592 6.408 3.456z" transform="matrix(1.59119 0 0 1.59119 -294.353 224.22)"/>
    <path style="font-style:normal;font-weight:300;font-size:72px;line-height:1;font-family:MontserratLightAlt1;font-variant-ligatures:none;text-align:center;text-anchor:middle;fill:#fff" d="M663.058 86.232c-2.736-2.736-6.48-4.104-11.16-4.104-3.456 0-6.48.72-9 2.16-2.592 1.44-4.464 3.384-5.76 5.976V66.576h-3.6V120h3.6V99.984c0-4.464 1.224-7.992 3.816-10.656 2.52-2.592 5.976-3.96 10.44-3.96 3.816 0 6.768 1.152 8.928 3.312 2.16 2.232 3.24 5.472 3.24 9.648V120h3.6V98.04c0-5.112-1.368-9.072-4.104-11.808z" transform="matrix(1.59119 0 0 1.59119 -289.58 224.22)"/>
  </g>
</svg>